<mxfile host="app.diagrams.net" modified="2023-05-19T12:05:42.437Z" agent="Mozilla/5.0 (Windows NT 10.0; Win64; x64) AppleWebKit/537.36 (KHTML, like Gecko) Chrome/113.0.0.0 Safari/537.36" etag="OhvMzP-5Yz6yFafWAga7" version="21.3.2" type="github">
  <diagram id="C5RBs43oDa-KdzZeNtuy" name="Page-1">
    <mxGraphModel dx="1753" dy="516" grid="1" gridSize="10" guides="1" tooltips="1" connect="1" arrows="1" fold="1" page="1" pageScale="1" pageWidth="827" pageHeight="1169" math="0" shadow="0">
      <root>
        <mxCell id="WIyWlLk6GJQsqaUBKTNV-0" />
        <mxCell id="WIyWlLk6GJQsqaUBKTNV-1" parent="WIyWlLk6GJQsqaUBKTNV-0" />
        <mxCell id="2Nv2q724EqeHWPl6UebB-2" value="WhatsAppBotController" style="swimlane;fontStyle=1;align=center;verticalAlign=top;childLayout=stackLayout;horizontal=1;startSize=26;horizontalStack=0;resizeParent=1;resizeParentMax=0;resizeLast=0;collapsible=1;marginBottom=0;whiteSpace=wrap;html=1;" parent="WIyWlLk6GJQsqaUBKTNV-1" vertex="1">
          <mxGeometry x="270" y="80" width="180" height="78" as="geometry" />
        </mxCell>
        <mxCell id="2Nv2q724EqeHWPl6UebB-3" value="+ webhookListener()" style="text;strokeColor=none;fillColor=none;align=left;verticalAlign=top;spacingLeft=4;spacingRight=4;overflow=hidden;rotatable=0;points=[[0,0.5],[1,0.5]];portConstraint=eastwest;whiteSpace=wrap;html=1;" parent="2Nv2q724EqeHWPl6UebB-2" vertex="1">
          <mxGeometry y="26" width="180" height="26" as="geometry" />
        </mxCell>
        <mxCell id="2Nv2q724EqeHWPl6UebB-5" value="+ ListenGupshupWebHook()" style="text;strokeColor=none;fillColor=none;align=left;verticalAlign=top;spacingLeft=4;spacingRight=4;overflow=hidden;rotatable=0;points=[[0,0.5],[1,0.5]];portConstraint=eastwest;whiteSpace=wrap;html=1;" parent="2Nv2q724EqeHWPl6UebB-2" vertex="1">
          <mxGeometry y="52" width="180" height="26" as="geometry" />
        </mxCell>
        <mxCell id="2Nv2q724EqeHWPl6UebB-6" value="Uses" style="endArrow=open;endSize=12;dashed=1;html=1;rounded=0;entryX=0.444;entryY=1.077;entryDx=0;entryDy=0;entryPerimeter=0;" parent="WIyWlLk6GJQsqaUBKTNV-1" target="2Nv2q724EqeHWPl6UebB-5" edge="1">
          <mxGeometry width="160" relative="1" as="geometry">
            <mxPoint x="350" y="250" as="sourcePoint" />
            <mxPoint x="440" y="240" as="targetPoint" />
          </mxGeometry>
        </mxCell>
        <mxCell id="2Nv2q724EqeHWPl6UebB-7" value="BotDriver" style="swimlane;fontStyle=1;align=center;verticalAlign=top;childLayout=stackLayout;horizontal=1;startSize=26;horizontalStack=0;resizeParent=1;resizeParentMax=0;resizeLast=0;collapsible=1;marginBottom=0;whiteSpace=wrap;html=1;" parent="WIyWlLk6GJQsqaUBKTNV-1" vertex="1">
          <mxGeometry x="270" y="250" width="160" height="86" as="geometry" />
        </mxCell>
        <mxCell id="2Nv2q724EqeHWPl6UebB-8" value="apiName: string" style="text;strokeColor=none;fillColor=none;align=left;verticalAlign=top;spacingLeft=4;spacingRight=4;overflow=hidden;rotatable=0;points=[[0,0.5],[1,0.5]];portConstraint=eastwest;whiteSpace=wrap;html=1;" parent="2Nv2q724EqeHWPl6UebB-7" vertex="1">
          <mxGeometry y="26" width="160" height="26" as="geometry" />
        </mxCell>
        <mxCell id="2Nv2q724EqeHWPl6UebB-9" value="" style="line;strokeWidth=1;fillColor=none;align=left;verticalAlign=middle;spacingTop=-1;spacingLeft=3;spacingRight=3;rotatable=0;labelPosition=right;points=[];portConstraint=eastwest;strokeColor=inherit;" parent="2Nv2q724EqeHWPl6UebB-7" vertex="1">
          <mxGeometry y="52" width="160" height="8" as="geometry" />
        </mxCell>
        <mxCell id="2Nv2q724EqeHWPl6UebB-10" value="+ listenWebHook()" style="text;strokeColor=none;fillColor=none;align=left;verticalAlign=top;spacingLeft=4;spacingRight=4;overflow=hidden;rotatable=0;points=[[0,0.5],[1,0.5]];portConstraint=eastwest;whiteSpace=wrap;html=1;" parent="2Nv2q724EqeHWPl6UebB-7" vertex="1">
          <mxGeometry y="60" width="160" height="26" as="geometry" />
        </mxCell>
        <mxCell id="2Nv2q724EqeHWPl6UebB-11" value="Uses" style="endArrow=open;endSize=12;dashed=1;html=1;rounded=0;" parent="WIyWlLk6GJQsqaUBKTNV-1" edge="1">
          <mxGeometry width="160" relative="1" as="geometry">
            <mxPoint x="349.66" y="456" as="sourcePoint" />
            <mxPoint x="349.66" y="336" as="targetPoint" />
          </mxGeometry>
        </mxCell>
        <mxCell id="2Nv2q724EqeHWPl6UebB-16" value="Uses" style="endArrow=open;endSize=12;dashed=1;html=1;rounded=0;entryX=0.457;entryY=1.048;entryDx=0;entryDy=0;entryPerimeter=0;exitX=0.451;exitY=-0.006;exitDx=0;exitDy=0;exitPerimeter=0;" parent="WIyWlLk6GJQsqaUBKTNV-1" edge="1" target="B--6DvQ_DzSvwWm5WlYj-3" source="2Nv2q724EqeHWPl6UebB-28">
          <mxGeometry width="160" relative="1" as="geometry">
            <mxPoint x="470" y="742" as="sourcePoint" />
            <mxPoint x="640.34" y="710" as="targetPoint" />
            <Array as="points" />
          </mxGeometry>
        </mxCell>
        <mxCell id="2Nv2q724EqeHWPl6UebB-23" value="Uses" style="endArrow=open;endSize=12;dashed=1;html=1;rounded=0;" parent="WIyWlLk6GJQsqaUBKTNV-1" edge="1">
          <mxGeometry width="160" relative="1" as="geometry">
            <mxPoint x="349.65999999999997" y="1080" as="sourcePoint" />
            <mxPoint x="349.65999999999997" y="974" as="targetPoint" />
          </mxGeometry>
        </mxCell>
        <mxCell id="2Nv2q724EqeHWPl6UebB-24" value="UserIdentity" style="swimlane;fontStyle=1;align=center;verticalAlign=top;childLayout=stackLayout;horizontal=1;startSize=26;horizontalStack=0;resizeParent=1;resizeParentMax=0;resizeLast=0;collapsible=1;marginBottom=0;whiteSpace=wrap;html=1;" parent="WIyWlLk6GJQsqaUBKTNV-1" vertex="1">
          <mxGeometry x="215" y="1080" width="290" height="220" as="geometry" />
        </mxCell>
        <mxCell id="2Nv2q724EqeHWPl6UebB-25" value="apiName: string;&lt;br&gt;&lt;br&gt;&amp;nbsp;id: string;&lt;br&gt;&lt;br&gt;&amp;nbsp;companyId: string;&lt;br&gt;&lt;br&gt;&amp;nbsp;name: string; companyName:string; &lt;br&gt;&lt;br&gt;lang: SupportedLanguages = SupportedLanguages.LANGUAGE_ENGLISH;&amp;nbsp;&lt;br&gt;&lt;br&gt;contact: ContactWrapperClass;" style="text;strokeColor=none;fillColor=none;align=left;verticalAlign=top;spacingLeft=4;spacingRight=4;overflow=hidden;rotatable=0;points=[[0,0.5],[1,0.5]];portConstraint=eastwest;whiteSpace=wrap;html=1;" parent="2Nv2q724EqeHWPl6UebB-24" vertex="1">
          <mxGeometry y="26" width="290" height="194" as="geometry" />
        </mxCell>
        <mxCell id="2Nv2q724EqeHWPl6UebB-28" value="AuthService" style="swimlane;fontStyle=1;align=center;verticalAlign=top;childLayout=stackLayout;horizontal=1;startSize=26;horizontalStack=0;resizeParent=1;resizeParentMax=0;resizeLast=0;collapsible=1;marginBottom=0;whiteSpace=wrap;html=1;" parent="WIyWlLk6GJQsqaUBKTNV-1" vertex="1">
          <mxGeometry x="245" y="790" width="210" height="180" as="geometry" />
        </mxCell>
        <mxCell id="2Nv2q724EqeHWPl6UebB-29" value="-contactObj:ContactWrapperClass&lt;br&gt;&lt;br&gt;- authToken: string&lt;br&gt;&lt;br&gt;- webhookRequest:WebhookRequest" style="text;strokeColor=none;fillColor=none;align=left;verticalAlign=top;spacingLeft=4;spacingRight=4;overflow=hidden;rotatable=0;points=[[0,0.5],[1,0.5]];portConstraint=eastwest;whiteSpace=wrap;html=1;" parent="2Nv2q724EqeHWPl6UebB-28" vertex="1">
          <mxGeometry y="26" width="210" height="84" as="geometry" />
        </mxCell>
        <mxCell id="2Nv2q724EqeHWPl6UebB-30" value="" style="line;strokeWidth=1;fillColor=none;align=left;verticalAlign=middle;spacingTop=-1;spacingLeft=3;spacingRight=3;rotatable=0;labelPosition=right;points=[];portConstraint=eastwest;strokeColor=inherit;" parent="2Nv2q724EqeHWPl6UebB-28" vertex="1">
          <mxGeometry y="110" width="210" height="8" as="geometry" />
        </mxCell>
        <mxCell id="2Nv2q724EqeHWPl6UebB-31" value="+authorize(): Promise&amp;lt;UserIdentity&amp;gt;&lt;br&gt;&lt;br&gt;-findUser(): Promise&amp;lt;Customer&amp;gt;" style="text;strokeColor=none;fillColor=none;align=left;verticalAlign=top;spacingLeft=4;spacingRight=4;overflow=hidden;rotatable=0;points=[[0,0.5],[1,0.5]];portConstraint=eastwest;whiteSpace=wrap;html=1;" parent="2Nv2q724EqeHWPl6UebB-28" vertex="1">
          <mxGeometry y="118" width="210" height="62" as="geometry" />
        </mxCell>
        <mxCell id="2Nv2q724EqeHWPl6UebB-32" value="BotApiFactory" style="swimlane;fontStyle=1;align=center;verticalAlign=top;childLayout=stackLayout;horizontal=1;startSize=26;horizontalStack=0;resizeParent=1;resizeParentMax=0;resizeLast=0;collapsible=1;marginBottom=0;whiteSpace=wrap;html=1;" parent="WIyWlLk6GJQsqaUBKTNV-1" vertex="1">
          <mxGeometry x="30" y="250" width="200" height="150" as="geometry" />
        </mxCell>
        <mxCell id="2Nv2q724EqeHWPl6UebB-33" value="+API_DIALOG360: string&lt;br&gt;+API_GUPSHUP: string" style="text;strokeColor=none;fillColor=none;align=left;verticalAlign=top;spacingLeft=4;spacingRight=4;overflow=hidden;rotatable=0;points=[[0,0.5],[1,0.5]];portConstraint=eastwest;whiteSpace=wrap;html=1;" parent="2Nv2q724EqeHWPl6UebB-32" vertex="1">
          <mxGeometry y="26" width="200" height="64" as="geometry" />
        </mxCell>
        <mxCell id="2Nv2q724EqeHWPl6UebB-34" value="" style="line;strokeWidth=1;fillColor=none;align=left;verticalAlign=middle;spacingTop=-1;spacingLeft=3;spacingRight=3;rotatable=0;labelPosition=right;points=[];portConstraint=eastwest;strokeColor=inherit;" parent="2Nv2q724EqeHWPl6UebB-32" vertex="1">
          <mxGeometry y="90" width="200" height="8" as="geometry" />
        </mxCell>
        <mxCell id="2Nv2q724EqeHWPl6UebB-35" value="+getApi(apiName)&lt;br&gt;+getApiRequest(apiName, request)" style="text;strokeColor=none;fillColor=none;align=left;verticalAlign=top;spacingLeft=4;spacingRight=4;overflow=hidden;rotatable=0;points=[[0,0.5],[1,0.5]];portConstraint=eastwest;whiteSpace=wrap;html=1;" parent="2Nv2q724EqeHWPl6UebB-32" vertex="1">
          <mxGeometry y="98" width="200" height="52" as="geometry" />
        </mxCell>
        <mxCell id="2Nv2q724EqeHWPl6UebB-36" value="BaseBotApi" style="swimlane;fontStyle=1;align=center;verticalAlign=top;childLayout=stackLayout;horizontal=1;startSize=26;horizontalStack=0;resizeParent=1;resizeParentMax=0;resizeLast=0;collapsible=1;marginBottom=0;whiteSpace=wrap;html=1;" parent="WIyWlLk6GJQsqaUBKTNV-1" vertex="1">
          <mxGeometry x="-50" y="450" width="200" height="210" as="geometry" />
        </mxCell>
        <mxCell id="2Nv2q724EqeHWPl6UebB-37" value="- BASE_URL: string&lt;br&gt;- app_version: string&lt;br&gt;- API_KEY: string&lt;br&gt;- templateType: TemplateTypes&lt;br&gt;- userIdentity: UserIdentity" style="text;strokeColor=none;fillColor=none;align=left;verticalAlign=top;spacingLeft=4;spacingRight=4;overflow=hidden;rotatable=0;points=[[0,0.5],[1,0.5]];portConstraint=eastwest;whiteSpace=wrap;html=1;" parent="2Nv2q724EqeHWPl6UebB-36" vertex="1">
          <mxGeometry y="26" width="200" height="84" as="geometry" />
        </mxCell>
        <mxCell id="2Nv2q724EqeHWPl6UebB-38" value="" style="line;strokeWidth=1;fillColor=none;align=left;verticalAlign=middle;spacingTop=-1;spacingLeft=3;spacingRight=3;rotatable=0;labelPosition=right;points=[];portConstraint=eastwest;strokeColor=inherit;" parent="2Nv2q724EqeHWPl6UebB-36" vertex="1">
          <mxGeometry y="110" width="200" height="8" as="geometry" />
        </mxCell>
        <mxCell id="2Nv2q724EqeHWPl6UebB-39" value="+reply(contact, body, header, action, footer): boolean&lt;br&gt;&lt;br&gt;+setTemplateType(templateType): void" style="text;strokeColor=none;fillColor=none;align=left;verticalAlign=top;spacingLeft=4;spacingRight=4;overflow=hidden;rotatable=0;points=[[0,0.5],[1,0.5]];portConstraint=eastwest;whiteSpace=wrap;html=1;" parent="2Nv2q724EqeHWPl6UebB-36" vertex="1">
          <mxGeometry y="118" width="200" height="92" as="geometry" />
        </mxCell>
        <mxCell id="B--6DvQ_DzSvwWm5WlYj-0" value="WebHookRequest" style="swimlane;fontStyle=1;align=center;verticalAlign=top;childLayout=stackLayout;horizontal=1;startSize=26;horizontalStack=0;resizeParent=1;resizeParentMax=0;resizeLast=0;collapsible=1;marginBottom=0;whiteSpace=wrap;html=1;" vertex="1" parent="WIyWlLk6GJQsqaUBKTNV-1">
          <mxGeometry x="215" y="450" width="270" height="240" as="geometry" />
        </mxCell>
        <mxCell id="B--6DvQ_DzSvwWm5WlYj-1" value="apiName: string&lt;br&gt;authToken: string&lt;br&gt;app: string&lt;br&gt;timeStamp: number&lt;br&gt;version: number&lt;br&gt;type: RequestType&lt;br&gt;payload: Payload" style="text;strokeColor=none;fillColor=none;align=left;verticalAlign=top;spacingLeft=4;spacingRight=4;overflow=hidden;rotatable=0;points=[[0,0.5],[1,0.5]];portConstraint=eastwest;whiteSpace=wrap;html=1;" vertex="1" parent="B--6DvQ_DzSvwWm5WlYj-0">
          <mxGeometry y="26" width="270" height="114" as="geometry" />
        </mxCell>
        <mxCell id="B--6DvQ_DzSvwWm5WlYj-2" value="" style="line;strokeWidth=1;fillColor=none;align=left;verticalAlign=middle;spacingTop=-1;spacingLeft=3;spacingRight=3;rotatable=0;labelPosition=right;points=[];portConstraint=eastwest;strokeColor=inherit;" vertex="1" parent="B--6DvQ_DzSvwWm5WlYj-0">
          <mxGeometry y="140" width="270" height="8" as="geometry" />
        </mxCell>
        <mxCell id="B--6DvQ_DzSvwWm5WlYj-3" value="+getContact(): ContactWrapperClass&lt;br&gt;+getInputQuery(): InputQuery&lt;br&gt;+getAuthToken(): string&lt;br&gt;+setAuthToken(token: string) : void&lt;br&gt;+validate(): boolean" style="text;strokeColor=none;fillColor=none;align=left;verticalAlign=top;spacingLeft=4;spacingRight=4;overflow=hidden;rotatable=0;points=[[0,0.5],[1,0.5]];portConstraint=eastwest;whiteSpace=wrap;html=1;" vertex="1" parent="B--6DvQ_DzSvwWm5WlYj-0">
          <mxGeometry y="148" width="270" height="92" as="geometry" />
        </mxCell>
        <mxCell id="B--6DvQ_DzSvwWm5WlYj-4" value="GupshupWebHookRequest" style="swimlane;fontStyle=1;align=center;verticalAlign=top;childLayout=stackLayout;horizontal=1;startSize=26;horizontalStack=0;resizeParent=1;resizeParentMax=0;resizeLast=0;collapsible=1;marginBottom=0;whiteSpace=wrap;html=1;" vertex="1" parent="WIyWlLk6GJQsqaUBKTNV-1">
          <mxGeometry x="680" y="450" width="290" height="170" as="geometry" />
        </mxCell>
        <mxCell id="B--6DvQ_DzSvwWm5WlYj-5" value="+getContact(): ContactWrapperClass&lt;br&gt;&lt;br&gt;+getInputQuery(): InputQuery&lt;br&gt;&lt;br&gt;+getAuthToken(): string&lt;br&gt;&lt;br&gt;+setAuthToken(token: string): void&lt;br&gt;&lt;br&gt;+validate(): boolean" style="text;strokeColor=none;fillColor=none;align=left;verticalAlign=top;spacingLeft=4;spacingRight=4;overflow=hidden;rotatable=0;points=[[0,0.5],[1,0.5]];portConstraint=eastwest;whiteSpace=wrap;html=1;" vertex="1" parent="B--6DvQ_DzSvwWm5WlYj-4">
          <mxGeometry y="26" width="290" height="144" as="geometry" />
        </mxCell>
        <mxCell id="B--6DvQ_DzSvwWm5WlYj-8" value="Extends" style="endArrow=block;endSize=16;endFill=0;html=1;rounded=0;exitX=-0.003;exitY=0.386;exitDx=0;exitDy=0;exitPerimeter=0;" edge="1" parent="WIyWlLk6GJQsqaUBKTNV-1" source="B--6DvQ_DzSvwWm5WlYj-5">
          <mxGeometry width="160" relative="1" as="geometry">
            <mxPoint x="490" y="500" as="sourcePoint" />
            <mxPoint x="490" y="533" as="targetPoint" />
            <Array as="points" />
          </mxGeometry>
        </mxCell>
        <mxCell id="B--6DvQ_DzSvwWm5WlYj-9" value="ContactWrapperClass" style="swimlane;fontStyle=1;align=center;verticalAlign=top;childLayout=stackLayout;horizontal=1;startSize=26;horizontalStack=0;resizeParent=1;resizeParentMax=0;resizeLast=0;collapsible=1;marginBottom=0;whiteSpace=wrap;html=1;" vertex="1" parent="WIyWlLk6GJQsqaUBKTNV-1">
          <mxGeometry x="580" y="1080" width="250" height="180" as="geometry" />
        </mxCell>
        <mxCell id="B--6DvQ_DzSvwWm5WlYj-10" value="+ rawContact: string&lt;br&gt;&lt;br&gt;&amp;nbsp; &amp;nbsp;contact : string&lt;br&gt;&lt;br&gt;&amp;nbsp; &amp;nbsp;countryCode: string" style="text;strokeColor=none;fillColor=none;align=left;verticalAlign=top;spacingLeft=4;spacingRight=4;overflow=hidden;rotatable=0;points=[[0,0.5],[1,0.5]];portConstraint=eastwest;whiteSpace=wrap;html=1;" vertex="1" parent="B--6DvQ_DzSvwWm5WlYj-9">
          <mxGeometry y="26" width="250" height="94" as="geometry" />
        </mxCell>
        <mxCell id="B--6DvQ_DzSvwWm5WlYj-11" value="" style="line;strokeWidth=1;fillColor=none;align=left;verticalAlign=middle;spacingTop=-1;spacingLeft=3;spacingRight=3;rotatable=0;labelPosition=right;points=[];portConstraint=eastwest;strokeColor=inherit;" vertex="1" parent="B--6DvQ_DzSvwWm5WlYj-9">
          <mxGeometry y="120" width="250" height="8" as="geometry" />
        </mxCell>
        <mxCell id="B--6DvQ_DzSvwWm5WlYj-12" value="+getContact(isCountryCode: bool)&lt;br&gt;&lt;br&gt;-parse(): void " style="text;strokeColor=none;fillColor=none;align=left;verticalAlign=top;spacingLeft=4;spacingRight=4;overflow=hidden;rotatable=0;points=[[0,0.5],[1,0.5]];portConstraint=eastwest;whiteSpace=wrap;html=1;" vertex="1" parent="B--6DvQ_DzSvwWm5WlYj-9">
          <mxGeometry y="128" width="250" height="52" as="geometry" />
        </mxCell>
        <mxCell id="B--6DvQ_DzSvwWm5WlYj-14" value="UserIdentity" style="swimlane;fontStyle=1;align=center;verticalAlign=top;childLayout=stackLayout;horizontal=1;startSize=26;horizontalStack=0;resizeParent=1;resizeParentMax=0;resizeLast=0;collapsible=1;marginBottom=0;whiteSpace=wrap;html=1;" vertex="1" parent="WIyWlLk6GJQsqaUBKTNV-1">
          <mxGeometry x="580" y="1320" width="260" height="230" as="geometry" />
        </mxCell>
        <mxCell id="B--6DvQ_DzSvwWm5WlYj-15" value="apiName: string&lt;br&gt;&lt;br&gt;id: string&lt;br&gt;&lt;br&gt;companyId: string&lt;br&gt;&lt;br&gt;name: string&lt;br&gt;&lt;br&gt;companyName: string&lt;br&gt;&lt;br&gt;lang: SupportedLanguages&lt;br&gt;&lt;br&gt;contact : ContactWrapperClass&lt;br&gt;&lt;br&gt;" style="text;strokeColor=none;fillColor=none;align=left;verticalAlign=top;spacingLeft=4;spacingRight=4;overflow=hidden;rotatable=0;points=[[0,0.5],[1,0.5]];portConstraint=eastwest;whiteSpace=wrap;html=1;" vertex="1" parent="WIyWlLk6GJQsqaUBKTNV-1">
          <mxGeometry x="580" y="1346" width="260" height="204" as="geometry" />
        </mxCell>
        <mxCell id="B--6DvQ_DzSvwWm5WlYj-20" value="botMenuService" style="swimlane;fontStyle=1;align=center;verticalAlign=top;childLayout=stackLayout;horizontal=1;startSize=26;horizontalStack=0;resizeParent=1;resizeParentMax=0;resizeLast=0;collapsible=1;marginBottom=0;whiteSpace=wrap;html=1;" vertex="1" parent="WIyWlLk6GJQsqaUBKTNV-1">
          <mxGeometry x="920" y="1080" width="260" height="330" as="geometry" />
        </mxCell>
        <mxCell id="B--6DvQ_DzSvwWm5WlYj-21" value="- language: language&lt;br&gt;&lt;br&gt;- identity: userIdentity&lt;br&gt;&lt;br&gt;- sessionService :brainSessionService&lt;br&gt;&lt;br&gt;" style="text;strokeColor=none;fillColor=none;align=left;verticalAlign=top;spacingLeft=4;spacingRight=4;overflow=hidden;rotatable=0;points=[[0,0.5],[1,0.5]];portConstraint=eastwest;whiteSpace=wrap;html=1;" vertex="1" parent="B--6DvQ_DzSvwWm5WlYj-20">
          <mxGeometry y="26" width="260" height="94" as="geometry" />
        </mxCell>
        <mxCell id="B--6DvQ_DzSvwWm5WlYj-22" value="" style="line;strokeWidth=1;fillColor=none;align=left;verticalAlign=middle;spacingTop=-1;spacingLeft=3;spacingRight=3;rotatable=0;labelPosition=right;points=[];portConstraint=eastwest;strokeColor=inherit;" vertex="1" parent="B--6DvQ_DzSvwWm5WlYj-20">
          <mxGeometry y="120" width="260" height="8" as="geometry" />
        </mxCell>
        <mxCell id="B--6DvQ_DzSvwWm5WlYj-23" value="+ constructor(language: Language, identity: UserIdentity)&lt;br&gt;&lt;br&gt;+ getMainMenuOptions(): Promise&amp;lt;TemplateAction&amp;gt;&lt;br&gt;&lt;br&gt;+ getMainMenuOptionsMap(): Promise&amp;lt;Object&amp;gt;&lt;br&gt;&lt;br&gt;+ getMainMenuOptionReply(option: string)&lt;br&gt;&lt;br&gt;+ isValidMenuOption(option: string):Promise&amp;lt;boolean&amp;gt;" style="text;strokeColor=none;fillColor=none;align=left;verticalAlign=top;spacingLeft=4;spacingRight=4;overflow=hidden;rotatable=0;points=[[0,0.5],[1,0.5]];portConstraint=eastwest;whiteSpace=wrap;html=1;" vertex="1" parent="B--6DvQ_DzSvwWm5WlYj-20">
          <mxGeometry y="128" width="260" height="202" as="geometry" />
        </mxCell>
        <mxCell id="B--6DvQ_DzSvwWm5WlYj-24" value="Extends" style="endArrow=block;endSize=16;endFill=0;html=1;rounded=0;" edge="1" parent="WIyWlLk6GJQsqaUBKTNV-1">
          <mxGeometry width="160" relative="1" as="geometry">
            <mxPoint x="-50" y="560" as="sourcePoint" />
            <mxPoint x="-210" y="560" as="targetPoint" />
          </mxGeometry>
        </mxCell>
        <mxCell id="B--6DvQ_DzSvwWm5WlYj-26" value="GupshupApiV1" style="swimlane;fontStyle=1;align=center;verticalAlign=top;childLayout=stackLayout;horizontal=1;startSize=26;horizontalStack=0;resizeParent=1;resizeParentMax=0;resizeLast=0;collapsible=1;marginBottom=0;whiteSpace=wrap;html=1;" vertex="1" parent="WIyWlLk6GJQsqaUBKTNV-1">
          <mxGeometry x="-450" y="450" width="240" height="210" as="geometry" />
        </mxCell>
        <mxCell id="B--6DvQ_DzSvwWm5WlYj-27" value="- BASE_URL : string&lt;br&gt;&lt;br&gt;- API_KEY: string" style="text;strokeColor=none;fillColor=none;align=left;verticalAlign=top;spacingLeft=4;spacingRight=4;overflow=hidden;rotatable=0;points=[[0,0.5],[1,0.5]];portConstraint=eastwest;whiteSpace=wrap;html=1;" vertex="1" parent="B--6DvQ_DzSvwWm5WlYj-26">
          <mxGeometry y="26" width="240" height="74" as="geometry" />
        </mxCell>
        <mxCell id="B--6DvQ_DzSvwWm5WlYj-28" value="" style="line;strokeWidth=1;fillColor=none;align=left;verticalAlign=middle;spacingTop=-1;spacingLeft=3;spacingRight=3;rotatable=0;labelPosition=right;points=[];portConstraint=eastwest;strokeColor=inherit;" vertex="1" parent="B--6DvQ_DzSvwWm5WlYj-26">
          <mxGeometry y="100" width="240" height="8" as="geometry" />
        </mxCell>
        <mxCell id="B--6DvQ_DzSvwWm5WlYj-29" value="+ constructor();&lt;br&gt;&lt;br&gt;+ setTemplateType(templateType: TemplateTypes) : void&lt;br&gt;&lt;br&gt;" style="text;strokeColor=none;fillColor=none;align=left;verticalAlign=top;spacingLeft=4;spacingRight=4;overflow=hidden;rotatable=0;points=[[0,0.5],[1,0.5]];portConstraint=eastwest;whiteSpace=wrap;html=1;" vertex="1" parent="B--6DvQ_DzSvwWm5WlYj-26">
          <mxGeometry y="108" width="240" height="102" as="geometry" />
        </mxCell>
      </root>
    </mxGraphModel>
  </diagram>
</mxfile>
